<?xml version="1.0" encoding="iso-8859-1"?>
<!-- Uploaded to: SVG Repo, www.svgrepo.com, Generator: SVG Repo Mixer Tools -->
<svg height="800px" width="800px" version="1.1" id="Layer_1" xmlns="http://www.w3.org/2000/svg" xmlns:xlink="http://www.w3.org/1999/xlink" 
	 viewBox="0 0 511.983 511.983" xml:space="preserve">
<path style="fill:#965353;" d="M426.657,447.984H85.33c-5.891,0-10.672-4.766-10.672-10.655c0-5.891,4.781-10.672,10.672-10.672
	h341.327c5.891,0,10.672,4.781,10.672,10.672C437.329,443.219,432.548,447.984,426.657,447.984z"/>
<g>
	<path style="fill:#434A54;" d="M191.702,145.133c-4.968,0-9.421-3.5-10.453-8.547L160.484,34.33
		c-1.172-5.773,2.562-11.406,8.328-12.578c5.781-1.172,11.406,2.555,12.578,8.328l20.765,102.255
		c1.172,5.766-2.547,11.406-8.328,12.578C193.108,145.054,192.405,145.133,191.702,145.133z"/>
	<path style="fill:#434A54;" d="M320.722,145.554c-0.656,0-1.328-0.062-1.984-0.188c-5.797-1.094-9.609-6.672-8.516-12.453
		l19.75-104.95c1.094-5.789,6.672-9.594,12.453-8.508c5.796,1.086,9.608,6.664,8.515,12.453l-19.749,104.943
		C330.222,141.976,325.754,145.554,320.722,145.554z"/>
</g>
<path style="fill:#AAB2BC;" d="M479.984,117.336c0,5.89-4.766,10.656-10.656,10.656s-10.672-4.766-10.672-10.656
	c0-5.891,4.781-10.671,10.672-10.671S479.984,111.446,479.984,117.336z"/>
<path style="fill:#CCD1D9;" d="M479.984,95.993c0,5.891-4.766,10.672-10.656,10.672s-10.672-4.781-10.672-10.672
	c0-5.883,4.781-10.656,10.672-10.656S479.984,90.11,479.984,95.993z"/>
<path style="fill:#AAB2BC;" d="M479.984,159.992c0,5.89-4.766,10.671-10.656,10.671s-10.672-4.781-10.672-10.671
	c0-5.891,4.781-10.656,10.672-10.656S479.984,154.101,479.984,159.992z"/>
<path style="fill:#CCD1D9;" d="M479.984,138.664c0,5.891-4.766,10.672-10.656,10.672s-10.672-4.781-10.672-10.672
	s4.781-10.672,10.672-10.672S479.984,132.773,479.984,138.664z"/>
<path style="fill:#AAB2BC;" d="M479.984,74.665c0,5.891-4.766,10.671-10.656,10.671s-10.672-4.781-10.672-10.671
	s4.781-10.664,10.672-10.664S479.984,68.775,479.984,74.665z"/>
<path style="fill:#CCD1D9;" d="M479.984,53.338c0,5.891-4.766,10.664-10.656,10.664s-10.672-4.773-10.672-10.664
	s4.781-10.672,10.672-10.672S479.984,47.447,479.984,53.338z"/>
<path style="fill:#AAB2BC;" d="M479.984,32.002c0,5.891-4.766,10.664-10.656,10.664s-10.672-4.773-10.672-10.664
	c0-5.89,4.781-10.664,10.672-10.664S479.984,26.112,479.984,32.002z"/>
<g>
	<path style="fill:#7F4545;" d="M85.33,511.983c-5.891,0-10.672-4.766-10.672-10.656V22.448c0-5.891,4.781-10.664,10.672-10.664
		c5.89,0,10.656,4.773,10.656,10.664v478.879C95.986,507.218,91.22,511.983,85.33,511.983z"/>
	<path style="fill:#7F4545;" d="M426.657,511.983c-5.89,0-10.671-4.766-10.671-10.656V22.448c0-5.891,4.781-10.664,10.671-10.664
		c5.891,0,10.672,4.773,10.672,10.664v478.879C437.329,507.218,432.548,511.983,426.657,511.983z"/>
</g>
<path style="fill:#965353;" d="M255.982,42.666c-163.949,0-234.807-20.897-237.744-21.788c-5.641-1.711-8.828-7.664-7.125-13.305
	c1.719-5.632,7.656-8.812,13.297-7.117l0,0c0.688,0.211,71.389,20.882,231.572,20.882c160.208,0,230.893-20.671,231.596-20.882
	c5.641-1.688,11.578,1.5,13.281,7.132c1.702,5.641-1.484,11.578-7.109,13.289C490.812,21.768,419.955,42.666,255.982,42.666z"/>
<path style="fill:#FFCE54;" d="M255.982,106.665c-76.451,0-138.653,62.201-138.653,138.668c0,76.451,62.202,138.652,138.653,138.652
	c76.475,0,138.676-62.201,138.676-138.652C394.658,168.866,332.457,106.665,255.982,106.665z"/>
<g>
	<path style="fill:#F6BB42;" d="M255.982,330.659c-47.046,0-85.326-38.28-85.326-85.326c0-47.061,38.28-85.341,85.326-85.341
		c47.069,0,85.35,38.28,85.35,85.341C341.332,292.379,303.051,330.659,255.982,330.659z M255.982,181.335
		c-35.28,0-63.999,28.702-63.999,63.998c0,35.28,28.718,63.998,63.999,63.998c35.303,0,64.006-28.718,64.006-63.998
		C319.988,210.037,291.285,181.335,255.982,181.335z"/>
	<path style="fill:#F6BB42;" d="M255.982,213.334c-17.64,0-31.999,14.359-31.999,31.999c0,17.641,14.359,32,31.999,32
		c17.664,0,32.006-14.359,32.006-32C287.988,227.693,273.645,213.334,255.982,213.334z"/>
</g>
<path style="fill:#434A54;" d="M469.328,341.331c-5.891,0-10.672-4.781-10.672-10.672V181.335c0-5.891,4.781-10.672,10.672-10.672
	s10.656,4.781,10.656,10.672v149.324C479.984,336.55,475.219,341.331,469.328,341.331z"/>
<path style="fill:#ED5564;" d="M469.328,319.987c-17.656,0-31.999,14.359-31.999,32c0,17.655,14.343,31.998,31.999,31.998
	c17.641,0,32-14.343,32-31.998C501.328,334.346,486.969,319.987,469.328,319.987z"/>
</svg>